PathFileType	4	(X/Y/Z)	/Users/itak/Documents/Research/Walk-IL/dataset/trc/00156_00007.trc
DataRate	CameraRate	NumFrames	NumMarkers	Units	OrigDataRate	OrigDataStartFrame	OrigNumFrames
100.000000	100.000000	4	53	mm	100.000000	124	498
Frame#	Time	RPSI			LPSI			L3			STRN			T10			C7			CLAV			RBAK			LBAK			LSHO			LUPA			LAEL			LAOL			LWTS			LWPS			LFRA			LHPS			LHTS			RSHO			RUPA			RAEL			RAOL			RWTS			RWPS			RFRA			RIFD			RHTS			RHPS			RBHD			LFHD			RFHD			LBHD			LHIP			RHIP			RASI			LASI			LKNE			LTHI			LANK			LTIP			LTOE			LMT1			LMT5			LHEE			RKNE			RTHI			RANK			RTIP			RTOE			RMT1			RMT5			RHEE			LIFD			
		X1	Y1	Z1	X2	Y2	Z2	X3	Y3	Z3	X4	Y4	Z4	X5	Y5	Z5	X6	Y6	Z6	X7	Y7	Z7	X8	Y8	Z8	X9	Y9	Z9	X10	Y10	Z10	X11	Y11	Z11	X12	Y12	Z12	X13	Y13	Z13	X14	Y14	Z14	X15	Y15	Z15	X16	Y16	Z16	X17	Y17	Z17	X18	Y18	Z18	X19	Y19	Z19	X20	Y20	Z20	X21	Y21	Z21	X22	Y22	Z22	X23	Y23	Z23	X24	Y24	Z24	X25	Y25	Z25	X26	Y26	Z26	X27	Y27	Z27	X28	Y28	Z28	X29	Y29	Z29	X30	Y30	Z30	X31	Y31	Z31	X32	Y32	Z32	X33	Y33	Z33	X34	Y34	Z34	X35	Y35	Z35	X36	Y36	Z36	X37	Y37	Z37	X38	Y38	Z38	X39	Y39	Z39	X40	Y40	Z40	X41	Y41	Z41	X42	Y42	Z42	X43	Y43	Z43	X44	Y44	Z44	X45	Y45	Z45	X46	Y46	Z46	X47	Y47	Z47	X48	Y48	Z48	X49	Y49	Z49	X50	Y50	Z50	X51	Y51	Z51	X52	Y52	Z52	X53	Y53	Z53	

125	1.24	-1212.744140625	1108.385131835938	-552.11083984375	-1211.442016601562	1112.65185546875	-687.7841186523438	-1216.099731445312	1151.037353515625	-625.530517578125	-973.404541015625	1320.462280273438	-627.0791625976562	-1228.653198242188	1307.240966796875	-633.9066162109375	-1147.549926757812	1591.006591796875	-650.9119873046875	-985.208740234375	1460.466064453125	-632.188232421875	-1234.737060546875	1417.804321289062	-564.97314453125	-1151.298706054688	1570.793334960938	-752.7593994140625	-1064.631225585938	1541.882202148438	-816.6260375976562	-1099.11083984375	1412.991821289062	-886.4235229492188	-1114.704711914062	1192.076171875	-904.1527099609375	-1185.703369140625	1190.697509765625	-853.2447509765625	-1047.412963867188	927.32568359375	-847.2589111328125	-1131.505493164062	909.0516967773438	-872.19091796875	-1112.047119140625	1074.352172851562	-902.9730224609375	-1111.411743164062	831.2197875976562	-865.8778686523438	-1043.737060546875	836.35595703125	-850.4325561523438	-1107.597412109375	1564.630981445312	-465.7413940429688	-1140.640258789062	1495.917724609375	-403.675537109375	-1203.660400390625	1207.761962890625	-385.6806335449219	-1199.381591796875	1206.608764648438	-482.7222595214844	-1105.686889648438	943.4689331054688	-382.7008666992188	-1184.781616210938	940.4745483398438	-360.4151611328125	-1195.498901367188	1132.485107421875	-367.7898864746094	-1113.186401367188	746.8124389648438	-398.808837890625	-1096.511108398438	832.1876831054688	-374.9650573730469	-1166.392333984375	835.5740966796875	-353.107666015625	-1096.2919921875	1746.472412109375	-565.2300415039062	-915.5756225585938	1804.521728515625	-676.5626220703125	-929.3695068359375	1801.578857421875	-547.4669189453125	-1090.588500976562	1753.971313476562	-700.4931030273438	-1133.04248046875	1013.869445800781	-797.2381591796875	-1082.552856445312	1011.182983398438	-434.6212158203125	-1003.350830078125	1074.258056640625	-495.5688171386719	-1016.069030761719	1067.180908203125	-761.9285278320312	-1168.994995117188	511.9588623046875	-743.5156860351562	-1171.6162109375	659.3818359375	-778.6174926757812	-1350.604736328125	34.93490219116211	-704.9839477539062	-1302.499145507812	281.1298522949219	-752.7731323242188	-1119.947143554688	36.27526473999023	-644.4598388671875	-1202.133666992188	40.28366470336914	-613.2616577148438	-1225.710815429688	33.52566528320312	-731.121337890625	-1421.225830078125	36.83213043212891	-644.2997436523438	-888.611572265625	567.0880737304688	-503.5647888183594	-994.6695556640625	822.02490234375	-456.8309020996094	-906.7127075195312	38.27490997314453	-528.50537109375	-889.685302734375	426.2951965332031	-493.765869140625	-691.2634887695312	102.493522644043	-571.605224609375	-741.294189453125	76.49650573730469	-615.7674560546875	-779.57958984375	63.71307754516602	-504.0195922851562	-962.7452392578125	33.9776611328125	-577.5366821289062	-1056.676635742188	735.50927734375	-810.8861083984375	
126	1.25	-1207.101684570312	1107.187622070312	-552.22216796875	-1205.726440429688	1111.3427734375	-687.8983764648438	-1210.387451171875	1149.807861328125	-625.6365356445312	-967.8244018554688	1319.051879882812	-626.7941284179688	-1222.947631835938	1306.016357421875	-634.041748046875	-1141.652221679688	1589.7490234375	-650.9086303710938	-980.0189208984375	1458.799560546875	-631.67919921875	-1228.984130859375	1416.501586914062	-565.1494750976562	-1145.223266601562	1569.551635742188	-752.6775512695312	-1058.554931640625	1540.616821289062	-816.5440673828125	-1093.342041015625	1411.808837890625	-886.3809814453125	-1109.543090820312	1190.923461914062	-904.0065307617188	-1180.387329101562	1189.6474609375	-852.8751220703125	-1042.181762695312	926.2098999023438	-847.43798828125	-1126.5126953125	907.9247436523438	-871.7288818359375	-1107.02734375	1073.196044921875	-902.8049926757812	-1106.359008789062	830.1145629882812	-865.5924072265625	-1038.548706054688	835.2587280273438	-850.7183227539062	-1101.989868164062	1563.302368164062	-465.6600341796875	-1135.196533203125	1494.613037109375	-403.6505126953125	-1198.634521484375	1206.5576171875	-385.8438720703125	-1194.239501953125	1205.427856445312	-482.8908081054688	-1101.328857421875	942.0413208007812	-382.8289794921875	-1180.444580078125	939.2273559570312	-360.643798828125	-1190.658935546875	1131.265380859375	-367.9768676757812	-1109.39990234375	745.434326171875	-399.2153625488281	-1092.442504882812	830.6982421875	-375.2012939453125	-1162.327026367188	834.2443237304688	-353.47119140625	-1089.992309570312	1745.270385742188	-565.0601806640625	-908.7330322265625	1802.664306640625	-675.7326049804688	-922.9451904296875	1799.633544921875	-546.6504516601562	-1083.838012695312	1752.847412109375	-700.2734375	-1127.176513671875	1012.444946289062	-797.156005859375	-1077.151000976562	1010.014038085938	-434.3683166503906	-997.7697143554688	1072.987915039062	-495.1968383789062	-1010.308959960938	1065.81298828125	-761.6677856445312	-1164.892211914062	510.77392578125	-743.05859375	-1166.610229492188	658.1468505859375	-778.060791015625	-1350.52099609375	35.06542205810547	-704.7508544921875	-1300.231201171875	280.8031921386719	-752.5602416992188	-1119.793579101562	36.03566741943359	-644.3800048828125	-1202.0537109375	40.06309127807617	-613.14453125	-1225.656127929688	33.6641731262207	-731.059814453125	-1421.171752929688	37.12590408325195	-644.1864013671875	-885.40966796875	565.0499267578125	-503.5323181152344	-990.1311645507812	819.9359130859375	-455.8057250976562	-888.6693725585938	36.57259750366211	-531.5454711914062	-882.9462280273438	424.7149047851562	-494.3834228515625	-674.915283203125	106.6452713012695	-575.0020141601562	-724.3265380859375	79.51958465576172	-619.0313110351562	-762.0242919921875	65.39192199707031	-507.1590270996094	-944.5574951171875	31.01674461364746	-580.4695434570312	-1051.143920898438	734.392822265625	-811.07861328125	
127	1.26	-1201.2841796875	1105.932373046875	-552.3236083984375	-1199.817626953125	1109.961669921875	-688.0034790039062	-1204.529296875	1148.522094726562	-625.7422485351562	-962.0818481445312	1317.589599609375	-626.4486083984375	-1217.077758789062	1304.730224609375	-634.1817016601562	-1135.584350585938	1588.436401367188	-650.8709106445312	-974.47314453125	1457.16796875	-631.199951171875	-1223.084594726562	1415.12548828125	-565.3353271484375	-1138.947387695312	1568.254638671875	-752.5687866210938	-1052.275268554688	1539.301391601562	-816.4190063476562	-1087.326904296875	1410.5595703125	-886.2886962890625	-1104.056396484375	1189.69970703125	-903.7774047851562	-1174.759765625	1188.518310546875	-852.4463500976562	-1036.72705078125	924.9937744140625	-847.4776000976562	-1121.238159179688	906.7274169921875	-871.27001953125	-1101.696655273438	1071.970947265625	-902.5584716796875	-1101.058715820312	828.93115234375	-865.2985229492188	-1033.15087890625	834.06298828125	-850.8678588867188	-1096.268432617188	1561.905639648438	-465.5481262207031	-1129.649536132812	1493.243774414062	-403.5987548828125	-1193.478271484375	1205.278564453125	-385.9752807617188	-1188.944580078125	1204.170043945312	-483.0245666503906	-1096.72509765625	940.5816650390625	-382.8860778808594	-1175.859985351562	937.9136352539062	-360.8244934082031	-1185.658081054688	1129.971801757812	-368.1253051757812	-1105.183959960938	744.009521484375	-399.545166015625	-1088.053955078125	829.1909790039062	-375.3686828613281	-1157.962524414062	832.8501586914062	-353.7945861816406	-1083.612670898438	1744.004638671875	-564.8649291992188	-901.8016357421875	1800.77783203125	-674.8153076171875	-916.4466552734375	1797.665161132812	-545.7611083984375	-1076.962280273438	1751.646240234375	-700.0095825195312	-1121.116088867188	1010.944274902344	-797.0477294921875	-1071.599365234375	1008.785278320312	-434.0791015625	-992.0580444335938	1071.693603515625	-494.7732849121094	-1004.361572265625	1064.382202148438	-761.3515625	-1160.577514648438	509.5217590332031	-742.534912109375	-1161.354370117188	656.8281860351562	-777.4285278320312	-1350.418579101562	35.20236206054688	-704.5383911132812	-1297.815795898438	280.435791015625	-752.322265625	-1119.645629882812	35.75076675415039	-644.2647705078125	-1201.946166992188	39.88346099853516	-613.0344848632812	-1225.58544921875	33.76061248779297	-730.9794921875	-1421.095825195312	37.50043106079102	-644.0556640625	-882.0039672851562	562.9896850585938	-503.5631408691406	-985.3847045898438	817.7468872070312	-454.6637878417969	-871.2141723632812	35.27251434326172	-534.3582153320312	-876.23486328125	423.217041015625	-494.9811706542969	-659.21044921875	111.0386352539062	-578.1024780273438	-708.0264282226562	82.82511901855469	-622.0517578125	-745.1400756835938	67.40248870849609	-510.0606689453125	-926.9584350585938	28.4781494140625	-583.1594848632812	-1045.507568359375	733.1721801757812	-811.1907958984375	
128	1.27	-1195.30224609375	1104.624633789062	-552.4021606445312	-1193.722778320312	1108.515869140625	-688.0879516601562	-1198.522338867188	1147.184326171875	-625.8369750976562	-956.1703491210938	1316.073852539062	-626.041259765625	-1211.040405273438	1303.387451171875	-634.322265625	-1129.339599609375	1587.071655273438	-650.802734375	-968.5949096679688	1455.563354492188	-630.7341918945312	-1217.046875	1413.693237304688	-565.5257568359375	-1132.470581054688	1566.905883789062	-752.439697265625	-1045.781494140625	1537.9306640625	-816.2493286132812	-1081.0478515625	1409.236572265625	-886.1461791992188	-1098.23583984375	1188.398803710938	-903.4692993164062	-1168.81591796875	1187.308471679688	-851.9712524414062	-1031.045532226562	923.6697387695312	-847.3790283203125	-1115.685180664062	905.4533081054688	-870.809814453125	-1096.050170898438	1070.671020507812	-902.2362670898438	-1095.521118164062	827.6630859375	-864.9832153320312	-1027.550903320312	832.7578125	-850.8712158203125	-1090.4248046875	1560.443969726562	-465.4039001464844	-1123.99609375	1491.812377929688	-403.5222473144531	-1188.193237304688	1203.925903320312	-386.081787109375	-1183.48779296875	1202.836181640625	-483.1304626464844	-1091.876098632812	939.0885009765625	-382.866455078125	-1171.035400390625	936.5321655273438	-360.9627685546875	-1180.500366210938	1128.607055664062	-368.2411193847656	-1100.540893554688	742.5398559570312	-399.7852172851562	-1083.3486328125	827.6670532226562	-375.4614868164062	-1153.307006835938	831.39404296875	-354.0727233886719	-1077.155395507812	1742.67724609375	-564.64306640625	-894.7740478515625	1798.869873046875	-673.8092651367188	-909.8773803710938	1795.678588867188	-544.79736328125	-1069.959228515625	1750.377319335938	-699.70166015625	-1114.8828125	1009.376220703125	-796.9053955078125	-1065.90087890625	1007.497741699219	-433.7554016113281	-986.2278442382812	1070.376098632812	-494.3096313476562	-998.235107421875	1062.888916015625	-760.9786376953125	-1156.068969726562	508.2076721191406	-741.95361328125	-1155.902099609375	655.4434204101562	-776.7379760742188	-1350.297729492188	35.35600662231445	-704.3507690429688	-1295.278930664062	280.047119140625	-752.061767578125	-1119.503784179688	35.43178558349609	-644.1248779296875	-1201.825073242188	39.73943328857422	-612.9304809570312	-1225.503295898438	33.82080078125	-730.8903198242188	-1421.005615234375	37.96842575073242	-643.9129638671875	-878.341796875	560.9366455078125	-503.6330871582031	-980.4208984375	815.50048828125	-453.4349975585938	-854.4334106445312	34.31946563720703	-536.9484252929688	-869.5350952148438	421.7990417480469	-495.5451049804688	-644.22265625	115.5041275024414	-580.9027709960938	-692.4728393554688	86.26422119140625	-624.8233032226562	-729.0197143554688	69.6229248046875	-512.7359008789062	-910.0574951171875	26.30110168457031	-585.6149291992188	-1039.77685546875	731.8443603515625	-811.20166015625	
